# Blender v2.91.0 OBJ File: 'man3.blend'
# www.blender.org
mtllib man3.mtl
o man_Cube.001
v -0.057178 1.551250 -0.315825
v -0.145642 2.610654 -0.212151
v 0.142300 1.551250 -0.315825
v 0.034721 2.610654 -0.212151
v 0.053037 1.903702 -0.226355
v 0.218694 1.903702 -0.215365
v -0.163798 2.317958 -0.220723
v 0.202537 2.317958 -0.236636
v -0.095150 2.664808 -0.099315
v -0.000092 2.666265 -0.096543
v -0.224535 2.467855 -0.203173
v 0.142843 2.466583 -0.258724
v -0.096357 1.687380 -0.281268
v 0.196618 1.687380 -0.257530
v -0.132204 1.538381 -0.159626
v 0.216540 1.546639 -0.151646
v -0.092501 0.824222 -0.207914
v 0.066296 0.811192 -0.144308
v -0.078545 0.834964 -0.308518
v 0.154102 0.730682 -0.266809
v -0.183885 0.189678 -0.279727
v -0.075254 0.187778 -0.250706
v -0.084438 0.187055 -0.364202
v -0.183372 0.191391 -0.313652
v 0.063425 0.519114 -0.281549
v -0.002810 0.539181 -0.384967
v -0.207374 0.560706 -0.221259
v -0.045112 0.529766 -0.191074
v -0.178583 0.565801 -0.361782
v -0.152580 2.847179 -0.092019
v -0.097254 1.148330 -0.139952
v 0.229668 1.136785 -0.212475
v 0.120335 1.162292 -0.348077
v -0.051931 1.174904 -0.337509
v 0.109326 1.133065 -0.083277
v 0.040319 2.317958 -0.258005
v -0.205397 0.077238 -0.246996
v -0.084388 0.108780 -0.257677
v -0.093649 0.110729 -0.369529
v -0.207387 0.078694 -0.345225
v -0.096629 -0.002420 -0.382350
v -0.211871 -0.002420 -0.325679
v -0.210332 -0.002420 -0.257927
v -0.087433 -0.002420 -0.259879
v 0.175728 0.027580 -0.418797
v 0.194300 0.027580 -0.285216
v 0.175728 -0.002420 -0.418797
v 0.194300 -0.002420 -0.285216
v -0.069136 2.766716 -0.083953
v -0.147569 3.049695 -0.093340
v 0.100849 3.049695 -0.090561
v -0.181037 2.952111 -0.093679
v 0.118972 2.948482 -0.100054
v -0.091372 3.092941 -0.085959
v 0.081813 3.094844 -0.072468
v 0.114041 2.846675 -0.099446
v 0.017050 2.745828 -0.086039
v 0.000686 3.049695 -0.127660
v 0.005495 2.945458 -0.140549
v -0.003902 3.100891 -0.085959
v 0.012622 2.842744 -0.125923
v -0.091925 3.049695 -0.128477
v -0.097129 2.949228 -0.148216
v -0.084432 2.845402 -0.119559
v 0.192235 0.910096 -0.253782
v 0.084381 0.835717 -0.369587
v -0.077169 1.364883 -0.061983
v 0.135716 1.434661 -0.325492
v 0.222775 1.351995 -0.180534
v -0.055605 1.438442 -0.322325
v 0.172172 1.360308 -0.024962
v -0.116553 1.363713 -0.150816
v 0.164009 2.847245 -0.034454
v 0.145043 2.736030 -0.049190
v 0.073472 2.744619 -0.082572
v -0.065470 1.657362 -0.548489
v -0.069853 2.581270 -0.297617
v 0.030685 1.666765 -0.545199
v 0.016385 1.650543 -0.490309
v -0.075289 1.630689 -0.468750
v -0.075447 2.493389 -0.370233
v 0.043278 2.471965 -0.308019
v -0.202515 2.485285 -0.311498
v 0.005159 2.297971 -0.329181
v -0.035117 2.268861 -0.257822
v -0.180689 2.297971 -0.329181
v -0.087765 2.309933 -0.378718
v -0.159145 2.157594 -0.268289
v -0.085830 2.192384 -0.408787
v -0.126105 2.047610 -0.299878
v -0.157665 2.097372 -0.371898
v -0.084050 2.081197 -0.430135
v 0.008394 2.069459 -0.384226
v -0.021555 2.044550 -0.300535
v -0.152896 2.004587 -0.399138
v 0.016904 1.882677 -0.444272
v -0.004531 1.861688 -0.371819
v -0.099951 1.849592 -0.355214
v -0.129477 1.870952 -0.444489
v -0.057257 1.891399 -0.499530
v -0.058728 1.443504 -0.555256
v 0.099130 1.450900 -0.554399
v 0.059272 1.444679 -0.483007
v -0.081341 1.442265 -0.517801
v 0.019856 1.594825 -0.482819
v 0.050116 1.601107 -0.554781
v -0.045108 1.595526 -0.568947
v -0.072173 1.585118 -0.491952
v -0.042065 1.345446 -0.552364
v 0.107928 1.341476 -0.545877
v 0.071745 1.340115 -0.498818
v -0.058886 1.344525 -0.524503
v -0.018920 1.270879 -0.549837
v 0.102379 1.253581 -0.539486
v 0.071530 1.257989 -0.502231
v -0.030516 1.272237 -0.532217
v 0.148707 1.452743 -0.515786
v 0.108848 1.451244 -0.469545
v 0.117440 1.352928 -0.514751
v 0.094302 1.353043 -0.488741
v 0.146219 1.358529 -0.505674
v 0.123081 1.357738 -0.475909
v 0.143471 1.418887 -0.507463
v 0.105265 1.415937 -0.532716
v 0.074548 1.420881 -0.487149
v 0.112754 1.426238 -0.471864
v -0.087103 2.171433 -0.222715
v 0.208252 2.171433 -0.229112
v 0.044817 2.171433 -0.246810
v -0.170906 2.179051 -0.355570
v 0.011239 2.184135 -0.357833
v -0.025916 2.161720 -0.275462
v 0.036424 2.758113 -0.105096
v -0.067334 1.903702 -0.133859
v -0.068572 1.457580 0.000000
v -0.167075 2.593235 0.000000
v -0.057178 1.551250 0.315825
v -0.145642 2.610654 0.212151
v 0.199073 1.457580 0.000000
v 0.102013 2.593235 0.000000
v 0.142300 1.551250 0.315825
v 0.034721 2.610654 0.212151
v -0.086408 1.903702 0.000000
v 0.053037 1.903702 0.226355
v 0.218694 1.903702 0.215365
v 0.287626 1.903702 0.000000
v -0.206510 2.317958 0.000000
v -0.163798 2.317958 0.220723
v 0.202537 2.317958 0.236636
v 0.274966 2.317958 0.000000
v -0.125960 2.673368 0.000000
v -0.095150 2.664808 0.099315
v -0.000092 2.666265 0.096543
v 0.072235 2.656463 0.000000
v -0.214791 2.466583 0.000000
v -0.224535 2.467855 0.203173
v 0.142843 2.466583 0.258724
v 0.210842 2.457043 0.000000
v -0.096357 1.687380 0.281268
v 0.196618 1.687380 0.257530
v 0.266188 1.686137 0.000000
v -0.160835 1.686137 0.000000
v -0.132204 1.538381 0.159626
v 0.216540 1.546639 0.151646
v -0.092501 0.824222 0.207914
v 0.066296 0.811192 0.144308
v -0.078545 0.834964 0.308518
v 0.154102 0.730682 0.266809
v -0.183885 0.189678 0.279727
v -0.075254 0.187778 0.250706
v -0.084438 0.187055 0.364202
v -0.183372 0.191391 0.313652
v 0.063425 0.519114 0.281549
v -0.002810 0.539181 0.384967
v -0.207374 0.560706 0.221259
v -0.045112 0.529766 0.191074
v -0.178583 0.565801 0.361782
v -0.152580 2.847179 0.092019
v -0.097254 1.148330 0.139952
v 0.229668 1.136785 0.212475
v 0.120335 1.162292 0.348077
v -0.051931 1.174904 0.337509
v 0.109326 1.133065 0.083277
v 0.040319 2.317958 0.258005
v -0.205397 0.077238 0.246996
v -0.084388 0.108780 0.257677
v -0.093649 0.110729 0.369529
v -0.207387 0.078694 0.345225
v -0.096629 -0.002420 0.382350
v -0.211871 -0.002420 0.325679
v -0.210332 -0.002420 0.257927
v -0.087433 -0.002420 0.259879
v 0.175728 0.027580 0.418797
v 0.194300 0.027580 0.285216
v 0.175728 -0.002420 0.418797
v 0.194300 -0.002420 0.285216
v -0.117951 2.750407 0.000000
v -0.171505 3.049695 0.000000
v -0.069136 2.766716 0.083953
v -0.147569 3.049695 0.093340
v 0.150711 2.727456 0.000000
v 0.151103 3.049695 0.000000
v 0.100849 3.049695 0.090561
v -0.202327 2.951788 0.000000
v -0.181037 2.952111 0.093679
v 0.118972 2.948482 0.100054
v 0.167399 2.948482 0.000000
v -0.091372 3.124740 0.000000
v -0.091372 3.092941 0.085959
v 0.081813 3.094844 0.072468
v 0.065882 3.124740 0.000000
v 0.114041 2.846675 0.099446
v -0.173353 2.856605 0.000000
v 0.017050 2.745828 0.086039
v 0.000686 3.049695 0.127660
v 0.073466 2.726154 0.000000
v 0.005495 2.945458 0.140549
v -0.003902 3.100891 0.085959
v -0.003902 3.132690 0.000000
v 0.012622 2.842744 0.125923
v -0.091925 3.049695 0.128477
v -0.097129 2.949228 0.148216
v -0.084432 2.845402 0.119559
v 0.192235 0.910096 0.253782
v 0.084381 0.835717 0.369587
v -0.077169 1.364883 0.061983
v 0.135716 1.434661 0.325492
v 0.222775 1.351995 0.180534
v -0.055605 1.438442 0.322325
v 0.172172 1.360308 0.024962
v -0.116553 1.363713 0.150816
v 0.200240 2.852994 0.000000
v 0.164009 2.847245 0.034454
v 0.145043 2.736030 0.049190
v 0.073472 2.744619 0.082572
v -0.065470 1.657362 0.548489
v -0.069853 2.581270 0.297617
v 0.030685 1.666765 0.545199
v 0.016385 1.650543 0.490309
v -0.075289 1.630689 0.468750
v -0.075447 2.493389 0.370233
v 0.043278 2.471965 0.308019
v -0.202515 2.485285 0.311498
v 0.005159 2.297971 0.329181
v -0.035117 2.268861 0.257822
v -0.180689 2.297971 0.329181
v -0.087765 2.309933 0.378718
v -0.159145 2.157594 0.268289
v -0.085830 2.192384 0.408787
v -0.126105 2.047610 0.299878
v -0.157665 2.097372 0.371898
v -0.084050 2.081197 0.430135
v 0.008394 2.069459 0.384226
v -0.021555 2.044550 0.300535
v -0.152896 2.004587 0.399138
v 0.016904 1.882677 0.444272
v -0.004531 1.861688 0.371819
v -0.099951 1.849592 0.355214
v -0.129477 1.870952 0.444489
v -0.057257 1.891399 0.499530
v -0.058728 1.443504 0.555256
v 0.099130 1.450900 0.554399
v 0.059272 1.444679 0.483007
v -0.081341 1.442265 0.517801
v 0.019856 1.594825 0.482819
v 0.050116 1.601107 0.554781
v -0.045108 1.595526 0.568947
v -0.072173 1.585118 0.491952
v -0.042065 1.345446 0.552364
v 0.107928 1.341476 0.545877
v 0.071745 1.340115 0.498818
v -0.058886 1.344525 0.524503
v -0.018920 1.270879 0.549837
v 0.102379 1.253581 0.539486
v 0.071530 1.257989 0.502231
v -0.030516 1.272237 0.532217
v 0.148707 1.452743 0.515786
v 0.108848 1.451244 0.469545
v 0.117440 1.352928 0.514751
v 0.094302 1.353043 0.488741
v 0.146219 1.358529 0.505674
v 0.123081 1.357738 0.475909
v 0.143471 1.418887 0.507463
v 0.105265 1.415937 0.532716
v 0.074548 1.420881 0.487149
v 0.112754 1.426238 0.471864
v 0.162307 2.806560 0.000000
v -0.087103 2.171433 0.222715
v 0.208252 2.171433 0.229112
v 0.279444 2.171433 0.000000
v -0.164029 2.171433 0.000000
v 0.044817 2.171433 0.246810
v -0.170906 2.179051 0.355570
v 0.011239 2.184135 0.357833
v -0.025916 2.161720 0.275462
v 0.036424 2.758113 0.105096
v -0.067334 1.903702 0.133859
vt 0.992188 0.417969
vt 0.992188 0.468750
vt 0.906250 0.476562
vt 0.906250 0.417969
vt 0.773438 0.382812
vt 0.757812 0.425781
vt 0.695312 0.417969
vt 0.695312 0.382812
vt 0.765625 0.625000
vt 0.855469 0.625000
vt 0.832031 0.679688
vt 0.785156 0.679688
vt 0.179688 0.207031
vt 0.125000 0.234375
vt 0.125000 0.183594
vt 0.992188 0.503906
vt 0.937500 0.500000
vt 0.765625 0.101562
vt 0.765625 0.179688
vt 0.695312 0.179688
vt 0.695312 0.101562
vt 0.816406 0.179688
vt 0.992188 0.101562
vt 0.992188 0.179688
vt 0.929688 0.179688
vt 0.882812 0.101562
vt 0.761719 0.304688
vt 0.765625 0.347656
vt 0.695312 0.347656
vt 0.695312 0.304688
vt 0.902344 0.304688
vt 0.902344 0.347656
vt 0.851562 0.347656
vt 0.753906 0.726562
vt 0.992188 0.347656
vt 0.859375 0.035156
vt 0.921875 0.035156
vt 0.992188 0.027344
vt 0.781250 0.042969
vt 0.734375 0.042969
vt 0.074219 0.121094
vt 0.015625 0.121094
vt 0.015625 0.015625
vt 0.074219 0.015625
vt 0.179688 0.121094
vt 0.125000 0.121094
vt 0.179688 0.015625
vt 0.074219 0.207031
vt 0.222656 0.304688
vt 0.179688 0.304688
vt 0.222656 0.207031
vt 0.015625 0.207031
vt 0.074219 0.304688
vt 0.015625 0.304688
vt 0.222656 0.121094
vt 0.222656 0.015625
vt 0.277344 0.121094
vt 0.277344 0.015625
vt 0.277344 0.207031
vt 0.222656 0.375000
vt 0.179688 0.375000
vt 0.277344 0.363281
vt 0.277344 0.304688
vt 0.074219 0.363281
vt 0.015625 0.363281
vt 0.125000 0.363281
vt 0.125000 0.304688
vt 0.316406 0.363281
vt 0.828125 0.347656
vt 0.695312 0.011719
vt 0.996094 0.804688
vt 0.996094 0.886719
vt 0.937500 0.886719
vt 0.937500 0.804688
vt 0.996094 0.996094
vt 0.937500 0.996094
vt 0.937500 0.953125
vt 0.996094 0.937500
vt 0.937500 0.996094
vt 0.996094 0.996094
vt 0.996094 0.937500
vt 0.937500 0.953125
vt 0.753906 0.976562
vt 0.722656 0.976562
vt 0.722656 0.921875
vt 0.753906 0.921875
vt 0.937500 0.894531
vt 0.996094 0.894531
vt 0.996094 0.792969
vt 0.937500 0.792969
vt 0.937500 0.742188
vt 0.996094 0.742188
vt 0.722656 0.886719
vt 0.753906 0.886719
vt 0.996094 0.894531
vt 0.937500 0.894531
vt 0.792969 0.894531
vt 0.792969 0.910156
vt 0.792969 0.804688
vt 0.792969 0.886719
vt 0.785156 0.886719
vt 0.785156 0.804688
vt 0.792969 0.910156
vt 0.792969 0.894531
vt 0.792969 0.792969
vt 0.792969 0.742188
vt 0.519531 0.808594
vt 0.519531 0.898438
vt 0.441406 0.898438
vt 0.441406 0.808594
vt 0.289062 0.800781
vt 0.292969 0.898438
vt 0.207031 0.898438
vt 0.191406 0.804688
vt 0.187500 0.804688
vt 0.179688 0.894531
vt 0.097656 0.894531
vt 0.097656 0.804688
vt 0.148438 0.988281
vt 0.183594 0.964844
vt 0.148438 0.960938
vt 0.066406 0.496094
vt 0.066406 0.554688
vt 0.007812 0.554688
vt 0.007812 0.496094
vt 0.195312 0.718750
vt 0.230469 0.628906
vt 0.261719 0.640625
vt 0.281250 0.714844
vt 0.097656 0.960938
vt 0.148438 0.910156
vt 0.097656 0.910156
vt 0.007812 0.910156
vt 0.039062 0.964844
vt 0.046875 0.953125
vt 0.195312 0.910156
vt 0.296875 0.511719
vt 0.218750 0.511719
vt 0.218750 0.441406
vt 0.296875 0.441406
vt 0.519531 0.636719
vt 0.519531 0.718750
vt 0.441406 0.718750
vt 0.066406 0.457031
vt 0.351562 0.648438
vt 0.363281 0.714844
vt 0.277344 0.632812
vt 0.136719 0.511719
vt 0.136719 0.441406
vt 0.058594 0.910156
vt 0.097656 0.984375
vt 0.367188 0.804688
vt 0.371094 0.898438
vt 0.433594 0.808594
vt 0.433594 0.898438
vt 0.078125 0.511719
vt 0.078125 0.441406
vt 0.433594 0.718750
vt 0.839844 0.304688
vt 0.179688 0.417969
vt 0.125000 0.417969
vt 0.277344 0.417969
vt 0.074219 0.417969
vt 0.015625 0.417969
vt 0.222656 0.417969
vt 0.128906 0.718750
vt 0.097656 0.722656
vt 0.167969 0.621094
vt 0.097656 0.683594
vt 0.707031 0.546875
vt 0.750000 0.472656
vt 0.761719 0.546875
vt 0.808594 0.554688
vt 0.808594 0.585938
vt 0.855469 0.550781
vt 0.375000 0.578125
vt 0.375000 0.503906
vt 0.343750 0.503906
vt 0.816406 0.484375
vt 0.460938 0.273438
vt 0.457031 0.222656
vt 0.500000 0.218750
vt 0.496094 0.273438
vt 0.464844 0.128906
vt 0.503906 0.125000
vt 0.417969 0.273438
vt 0.421875 0.222656
vt 0.421875 0.332031
vt 0.359375 0.332031
vt 0.359375 0.265625
vt 0.539062 0.273438
vt 0.531250 0.332031
vt 0.496094 0.332031
vt 0.542969 0.191406
vt 0.542969 0.234375
vt 0.582031 0.222656
vt 0.582031 0.277344
vt 0.359375 0.218750
vt 0.425781 0.125000
vt 0.457031 0.332031
vt 0.582031 0.128906
vt 0.542969 0.125000
vt 0.539062 0.015625
vt 0.582031 0.015625
vt 0.429688 0.015625
vt 0.359375 0.121094
vt 0.359375 0.015625
vt 0.472656 0.015625
vt 0.429688 0.503906
vt 0.429688 0.464844
vt 0.375000 0.464844
vt 0.632812 0.535156
vt 0.570312 0.535156
vt 0.570312 0.460938
vt 0.632812 0.460938
vt 0.429688 0.578125
vt 0.656250 0.535156
vt 0.656250 0.460938
vt 0.656250 0.566406
vt 0.632812 0.566406
vt 0.429688 0.597656
vt 0.570312 0.566406
vt 0.484375 0.601562
vt 0.445312 0.601562
vt 0.445312 0.574219
vt 0.570312 0.414062
vt 0.539062 0.414062
vt 0.539062 0.367188
vt 0.570312 0.367188
vt 0.632812 0.414062
vt 0.656250 0.414062
vt 0.539062 0.460938
vt 0.632812 0.367188
vt 0.570312 0.347656
vt 0.632812 0.347656
vt 0.429688 0.417969
vt 0.375000 0.417969
vt 0.656250 0.367188
vt 0.484375 0.574219
vt 0.445312 0.476562
vt 0.484375 0.476562
vt 0.445312 0.406250
vt 0.484375 0.406250
vt 0.484375 0.417969
vt 0.445312 0.417969
vt 0.503906 0.476562
vt 0.503906 0.460938
vt 0.484375 0.460938
vt 0.503906 0.417969
vt 0.343750 0.496094
vt 0.363281 0.496094
vt 0.359375 0.464844
vt 0.343750 0.464844
vt 0.523438 0.460938
vt 0.523438 0.417969
vt 0.445312 0.460938
vt 0.523438 0.476562
vt 0.375000 0.597656
vt 0.765625 0.617188
vt 0.777344 0.476562
vt 0.582031 0.332031
vt 0.898438 0.550781
vt 0.855469 0.617188
vt 0.890625 0.484375
vt 0.765625 0.449219
vt 0.187500 0.714844
vt 0.140625 0.621094
vt 0.097656 0.613281
vt 0.851562 0.484375
vt 0.992188 0.304688
vt 0.441406 0.636719
vt 0.347656 0.417969
vt 0.695312 0.441406
vt 0.906250 0.417969
vt 0.906250 0.476562
vt 0.773438 0.382812
vt 0.757812 0.425781
vt 0.765625 0.625000
vt 0.785156 0.679688
vt 0.832031 0.679688
vt 0.855469 0.625000
vt 0.179688 0.207031
vt 0.125000 0.183594
vt 0.125000 0.234375
vt 0.937500 0.500000
vt 0.765625 0.101562
vt 0.765625 0.179688
vt 0.816406 0.179688
vt 0.882812 0.101562
vt 0.929688 0.179688
vt 0.761719 0.304688
vt 0.765625 0.347656
vt 0.902344 0.304688
vt 0.851562 0.347656
vt 0.902344 0.347656
vt 0.921875 0.035156
vt 0.859375 0.035156
vt 0.781250 0.042969
vt 0.734375 0.042969
vt 0.074219 0.121094
vt 0.074219 0.015625
vt 0.015625 0.015625
vt 0.015625 0.121094
vt 0.179688 0.121094
vt 0.179688 0.015625
vt 0.125000 0.121094
vt 0.074219 0.207031
vt 0.222656 0.304688
vt 0.222656 0.207031
vt 0.179688 0.304688
vt 0.015625 0.207031
vt 0.015625 0.304688
vt 0.074219 0.304688
vt 0.222656 0.121094
vt 0.222656 0.015625
vt 0.277344 0.121094
vt 0.277344 0.015625
vt 0.277344 0.207031
vt 0.222656 0.375000
vt 0.179688 0.375000
vt 0.277344 0.363281
vt 0.277344 0.304688
vt 0.074219 0.363281
vt 0.015625 0.363281
vt 0.125000 0.363281
vt 0.125000 0.304688
vt 0.316406 0.363281
vt 0.828125 0.347656
vt 0.996094 0.804688
vt 0.937500 0.804688
vt 0.937500 0.886719
vt 0.996094 0.886719
vt 0.996094 0.996094
vt 0.996094 0.937500
vt 0.937500 0.953125
vt 0.937500 0.996094
vt 0.937500 0.996094
vt 0.937500 0.953125
vt 0.996094 0.937500
vt 0.996094 0.996094
vt 0.753906 0.976562
vt 0.753906 0.921875
vt 0.722656 0.921875
vt 0.722656 0.976562
vt 0.996094 0.894531
vt 0.937500 0.894531
vt 0.996094 0.792969
vt 0.996094 0.742188
vt 0.937500 0.742188
vt 0.937500 0.792969
vt 0.753906 0.886719
vt 0.722656 0.886719
vt 0.937500 0.894531
vt 0.996094 0.894531
vt 0.792969 0.910156
vt 0.792969 0.894531
vt 0.792969 0.804688
vt 0.785156 0.804688
vt 0.785156 0.886719
vt 0.792969 0.886719
vt 0.792969 0.894531
vt 0.792969 0.910156
vt 0.792969 0.742188
vt 0.792969 0.792969
vt 0.441406 0.808594
vt 0.441406 0.898438
vt 0.289062 0.800781
vt 0.191406 0.804688
vt 0.207031 0.898438
vt 0.292969 0.898438
vt 0.011719 0.804688
vt 0.019531 0.894531
vt 0.148438 0.988281
vt 0.148438 0.960938
vt 0.183594 0.964844
vt 0.066406 0.496094
vt 0.066406 0.554688
vt 0.195312 0.718750
vt 0.281250 0.714844
vt 0.261719 0.640625
vt 0.230469 0.628906
vt 0.097656 0.960938
vt 0.046875 0.953125
vt 0.039062 0.964844
vt 0.218750 0.441406
vt 0.218750 0.511719
vt 0.441406 0.718750
vt 0.066406 0.457031
vt 0.351562 0.648438
vt 0.277344 0.632812
vt 0.363281 0.714844
vt 0.136719 0.441406
vt 0.136719 0.511719
vt 0.097656 0.984375
vt 0.367188 0.804688
vt 0.371094 0.898438
vt 0.433594 0.808594
vt 0.433594 0.898438
vt 0.433594 0.718750
vt 0.839844 0.304688
vt 0.179688 0.417969
vt 0.125000 0.417969
vt 0.277344 0.417969
vt 0.222656 0.417969
vt 0.070312 0.718750
vt 0.167969 0.621094
vt 0.707031 0.546875
vt 0.761719 0.546875
vt 0.750000 0.472656
vt 0.808594 0.585938
vt 0.808594 0.554688
vt 0.855469 0.550781
vt 0.375000 0.578125
vt 0.343750 0.503906
vt 0.375000 0.503906
vt 0.816406 0.484375
vt 0.460938 0.273438
vt 0.496094 0.273438
vt 0.500000 0.218750
vt 0.457031 0.222656
vt 0.503906 0.125000
vt 0.464844 0.128906
vt 0.421875 0.222656
vt 0.417969 0.273438
vt 0.421875 0.332031
vt 0.359375 0.265625
vt 0.359375 0.332031
vt 0.539062 0.273438
vt 0.496094 0.332031
vt 0.531250 0.332031
vt 0.542969 0.191406
vt 0.542969 0.234375
vt 0.582031 0.222656
vt 0.582031 0.277344
vt 0.359375 0.218750
vt 0.425781 0.125000
vt 0.457031 0.332031
vt 0.582031 0.128906
vt 0.542969 0.125000
vt 0.539062 0.015625
vt 0.582031 0.015625
vt 0.429688 0.015625
vt 0.359375 0.015625
vt 0.359375 0.121094
vt 0.472656 0.015625
vt 0.375000 0.464844
vt 0.429688 0.464844
vt 0.429688 0.503906
vt 0.632812 0.535156
vt 0.632812 0.460938
vt 0.570312 0.460938
vt 0.570312 0.535156
vt 0.429688 0.578125
vt 0.656250 0.535156
vt 0.656250 0.460938
vt 0.656250 0.566406
vt 0.632812 0.566406
vt 0.429688 0.597656
vt 0.570312 0.566406
vt 0.484375 0.601562
vt 0.445312 0.574219
vt 0.445312 0.601562
vt 0.570312 0.414062
vt 0.570312 0.367188
vt 0.539062 0.367188
vt 0.539062 0.414062
vt 0.632812 0.414062
vt 0.656250 0.414062
vt 0.539062 0.460938
vt 0.632812 0.367188
vt 0.632812 0.347656
vt 0.570312 0.347656
vt 0.375000 0.417969
vt 0.429688 0.417969
vt 0.656250 0.367188
vt 0.484375 0.574219
vt 0.484375 0.476562
vt 0.445312 0.476562
vt 0.445312 0.406250
vt 0.445312 0.417969
vt 0.484375 0.417969
vt 0.484375 0.406250
vt 0.503906 0.476562
vt 0.503906 0.460938
vt 0.503906 0.417969
vt 0.484375 0.460938
vt 0.343750 0.496094
vt 0.343750 0.464844
vt 0.359375 0.464844
vt 0.363281 0.496094
vt 0.523438 0.460938
vt 0.523438 0.417969
vt 0.445312 0.460938
vt 0.523438 0.476562
vt 0.375000 0.597656
vt 0.765625 0.617188
vt 0.777344 0.476562
vt 0.582031 0.332031
vt 0.898438 0.550781
vt 0.855469 0.617188
vt 0.890625 0.484375
vt 0.765625 0.449219
vt 0.011719 0.714844
vt 0.054688 0.621094
vt 0.851562 0.484375
vt 0.441406 0.636719
vn -0.9941 0.1086 0.0000
vn -0.8531 0.5218 0.0000
vn -0.5535 0.7701 -0.3170
vn -0.9910 0.0722 -0.1126
vn 0.6693 0.3216 -0.6698
vn 0.4392 0.7730 -0.4578
vn 0.8365 0.5479 0.0000
vn 0.8672 0.4979 0.0000
vn -0.5448 0.6570 -0.5211
vn 0.3742 0.6138 -0.6952
vn 0.3440 -0.0263 -0.9386
vn 0.9839 -0.1777 -0.0186
vn 0.9472 -0.3181 0.0385
vn -0.8964 0.4432 0.0000
vn 0.6570 0.0675 -0.7508
vn 0.6629 0.0181 -0.7484
vn 0.9997 -0.0223 0.0000
vn 0.9921 -0.1253 0.0000
vn -0.1853 0.0972 -0.9778
vn -0.9984 0.0562 0.0000
vn -0.9992 0.0399 0.0000
vn -0.8776 0.0806 -0.4725
vn -0.6258 0.2403 -0.7420
vn 0.6335 -0.0205 -0.7735
vn 0.6790 0.0988 -0.7274
vn 0.9799 0.1996 0.0000
vn 0.9996 0.0268 0.0000
vn -0.6286 -0.2612 -0.7325
vn -0.9543 -0.2982 0.0176
vn 0.6099 -0.6835 -0.4010
vn 0.9410 0.3384 0.0000
vn -0.9550 -0.2964 0.0000
vn -0.4871 0.0816 -0.8695
vn -0.9851 -0.1182 -0.1248
vn -0.8410 -0.5410 0.0000
vn 0.4841 0.1176 -0.8671
vn 0.9724 -0.1081 -0.2068
vn 0.1645 -0.1801 0.9698
vn -0.8479 0.0847 0.5234
vn -0.8085 0.0664 0.5847
vn 0.6210 -0.2127 0.7544
vn 0.3059 -0.0851 -0.9482
vn 0.9360 -0.3405 0.0891
vn 0.5120 -0.1233 -0.8500
vn 0.2626 -0.2137 0.9409
vn -0.6400 0.0232 -0.7680
vn 0.3952 0.0296 -0.9181
vn -0.7100 0.1915 -0.6777
vn -0.8334 0.0937 0.5446
vn 0.2968 -0.2599 0.9189
vn -0.8581 -0.1391 0.4942
vn -0.7276 0.1524 -0.6689
vn -0.8074 0.1095 -0.5798
vn -0.5766 0.0112 -0.8169
vn 0.4925 0.0716 -0.8673
vn -0.9973 -0.0592 0.0417
vn 0.4856 -0.2452 0.8391
vn -0.6279 -0.2493 0.7373
vn 0.9943 -0.0639 -0.0849
vn 0.9912 -0.1316 -0.0107
vn 0.4622 -0.2785 -0.8419
vn 0.9482 -0.3177 0.0000
vn 0.4156 0.2955 0.8602
vn 0.1380 0.4049 -0.9039
vn -0.7837 0.1244 -0.6085
vn -0.6636 0.0919 0.7425
vn -0.1785 -0.6597 -0.7300
vn -0.6991 -0.5927 -0.3999
vn 0.0531 -0.7148 0.6973
vn -0.5895 -0.5786 0.5636
vn 0.6375 -0.5814 0.5055
vn 0.7099 0.4720 0.5227
vn 0.5447 0.5166 -0.6606
vn 0.5058 -0.5437 -0.6697
vn -0.9998 0.0168 0.0000
vn -0.8429 0.5380 0.0000
vn -0.7013 0.4863 -0.5213
vn -0.8304 0.0043 -0.5571
vn 0.1700 0.0007 -0.9854
vn 0.1535 0.3865 -0.9094
vn 0.6037 0.3516 -0.7155
vn 0.6462 0.0787 -0.7590
vn 0.9073 0.4205 0.0000
vn 0.9878 0.1556 0.0000
vn -0.2357 0.4228 -0.8750
vn -0.3144 0.8077 -0.4987
vn 0.1859 -0.7299 -0.6577
vn 0.5946 -0.6385 -0.4886
vn 0.6465 -0.7629 0.0000
vn 0.5657 -0.8245 0.0000
vn 0.5935 -0.1029 -0.7982
vn -0.0643 -0.4972 -0.8652
vn 0.0979 -0.2356 -0.9669
vn 0.0599 0.8057 -0.5893
vn -0.3663 0.9305 0.0000
vn 0.0154 0.9999 0.0000
vn 0.4371 0.7364 -0.5163
vn -0.9772 -0.2121 0.0000
vn -0.4229 -0.2548 -0.8696
vn -0.9323 -0.3617 0.0000
vn -0.7164 -0.3981 -0.5730
vn 0.1231 -0.4249 -0.8968
vn -0.2316 -0.3213 -0.9182
vn 0.3544 0.9351 0.0000
vn -0.2555 -0.0185 -0.9666
vn -0.0144 -0.0954 -0.9953
vn 0.8164 -0.0745 -0.5726
vn 0.9928 -0.1198 0.0000
vn 0.9680 -0.2509 0.0000
vn 0.5097 0.2002 -0.8367
vn 0.0398 0.3483 -0.9365
vn 0.0194 0.7569 -0.6533
vn -0.7994 0.2503 -0.5461
vn 0.4128 0.1440 0.8993
vn -0.1795 -0.1979 0.9636
vn 0.3554 0.1317 0.9254
vn -0.0177 0.1288 -0.9915
vn 0.9440 0.1060 -0.3123
vn 0.9400 0.1241 -0.3176
vn -0.0766 0.2428 -0.9670
vn -0.0412 0.2039 -0.9781
vn 0.9434 0.1781 -0.2798
vn -0.0428 0.3156 -0.9479
vn 0.5678 -0.1473 0.8099
vn 0.5856 -0.2022 0.7850
vn -0.6364 -0.2742 0.7209
vn -0.9069 -0.0224 -0.4207
vn -0.9098 -0.0060 -0.4150
vn -0.9582 -0.0139 -0.2857
vn -0.9330 -0.0457 -0.3569
vn -0.5420 -0.3076 0.7820
vn 0.6575 -0.2531 0.7097
vn 0.8477 -0.1450 -0.5101
vn -0.5061 -0.4095 0.7590
vn -0.9411 -0.0364 -0.3362
vn -0.6926 0.0180 -0.7211
vn -0.6437 -0.3988 0.6531
vn 0.7548 -0.0688 0.6523
vn 0.7739 0.2458 -0.5836
vn -0.9156 -0.1211 0.3834
vn -0.8845 -0.2827 0.3711
vn 0.3775 -0.0576 0.9242
vn -0.4717 0.0718 -0.8788
vn 0.7432 0.3537 -0.5679
vn 0.4104 -0.0986 -0.9066
vn -0.5397 -0.0454 -0.8406
vn -0.8828 -0.1337 0.4503
vn 0.9058 -0.0239 -0.4229
vn 0.2097 -0.6464 0.7335
vn 0.7145 -0.6301 -0.3041
vn -0.4749 -0.1575 -0.8658
vn -0.3299 -0.6420 -0.6920
vn -0.7080 -0.6350 0.3090
vn 0.9791 0.1426 -0.1449
vn -0.6706 -0.7011 0.2421
vn -0.0743 -0.7536 -0.6531
vn 0.8602 -0.4878 -0.1484
vn 0.2795 -0.5416 0.7928
vn -0.1874 -0.3943 -0.8997
vn 0.9897 -0.1060 -0.0957
vn 0.2731 -0.0725 0.9592
vn -0.8484 -0.4225 0.3189
vn -0.9528 -0.3037 0.0000
vn -0.9910 0.0722 0.1126
vn -0.5535 0.7701 0.3170
vn 0.6693 0.3216 0.6698
vn 0.4392 0.7730 0.4578
vn 0.3742 0.6138 0.6952
vn -0.5448 0.6570 0.5211
vn 0.3440 -0.0263 0.9386
vn 0.9472 -0.3181 -0.0385
vn 0.9839 -0.1777 0.0186
vn 0.6570 0.0675 0.7508
vn 0.6629 0.0181 0.7484
vn -0.1853 0.0972 0.9778
vn -0.6258 0.2403 0.7420
vn -0.8776 0.0806 0.4725
vn 0.6335 -0.0205 0.7735
vn 0.6790 0.0988 0.7274
vn -0.6286 -0.2612 0.7325
vn 0.6099 -0.6835 0.4010
vn -0.9543 -0.2982 -0.0176
vn -0.9851 -0.1182 0.1248
vn -0.4871 0.0816 0.8695
vn 0.4841 0.1176 0.8671
vn 0.9724 -0.1081 0.2068
vn 0.1645 -0.1801 -0.9698
vn 0.6210 -0.2127 -0.7544
vn -0.8085 0.0664 -0.5847
vn -0.8479 0.0847 -0.5234
vn 0.3059 -0.0851 0.9482
vn 0.5120 -0.1233 0.8500
vn 0.9360 -0.3405 -0.0891
vn 0.2626 -0.2137 -0.9409
vn -0.6400 0.0232 0.7680
vn -0.7100 0.1915 0.6777
vn 0.3952 0.0296 0.9181
vn -0.8334 0.0937 -0.5446
vn -0.8581 -0.1391 -0.4942
vn 0.2968 -0.2599 -0.9189
vn -0.7276 0.1524 0.6689
vn -0.8074 0.1095 0.5798
vn -0.5766 0.0112 0.8169
vn 0.4925 0.0716 0.8673
vn -0.9973 -0.0592 -0.0417
vn 0.4856 -0.2452 -0.8391
vn -0.6279 -0.2493 -0.7373
vn 0.9943 -0.0639 0.0849
vn 0.9912 -0.1316 0.0107
vn 0.4622 -0.2785 0.8419
vn 0.1380 0.4049 0.9039
vn 0.4156 0.2955 -0.8602
vn -0.7837 0.1244 0.6085
vn -0.6636 0.0919 -0.7425
vn -0.6991 -0.5927 0.3999
vn -0.1785 -0.6597 0.7300
vn -0.5895 -0.5786 -0.5636
vn 0.0531 -0.7148 -0.6973
vn 0.7099 0.4720 -0.5227
vn 0.6375 -0.5814 -0.5055
vn 0.5447 0.5166 0.6606
vn 0.5058 -0.5437 0.6697
vn -0.8304 0.0043 0.5571
vn -0.7013 0.4863 0.5213
vn 0.1700 0.0007 0.9854
vn 0.6462 0.0787 0.7590
vn 0.6037 0.3516 0.7155
vn 0.1535 0.3865 0.9094
vn -0.2357 0.4228 0.8750
vn -0.3144 0.8077 0.4987
vn 0.1859 -0.7299 0.6577
vn 0.5946 -0.6385 0.4886
vn 0.5935 -0.1029 0.7982
vn 0.0979 -0.2356 0.9669
vn -0.0643 -0.4972 0.8652
vn 0.0599 0.8057 0.5893
vn 0.4371 0.7364 0.5163
vn -0.4229 -0.2548 0.8696
vn -0.7164 -0.3981 0.5730
vn 0.1231 -0.4249 0.8968
vn -0.2316 -0.3213 0.9182
vn -0.2555 -0.0185 0.9666
vn -0.0144 -0.0954 0.9953
vn 0.8164 -0.0745 0.5726
vn 0.5097 0.2002 0.8367
vn 0.0194 0.7569 0.6533
vn 0.0398 0.3483 0.9365
vn -0.7994 0.2503 0.5461
vn 0.4128 0.1440 -0.8993
vn 0.3554 0.1317 -0.9254
vn -0.1795 -0.1979 -0.9636
vn -0.0177 0.1288 0.9915
vn 0.9440 0.1060 0.3123
vn -0.0412 0.2039 0.9781
vn -0.0766 0.2428 0.9670
vn 0.9400 0.1241 0.3176
vn -0.0428 0.3156 0.9479
vn 0.9434 0.1781 0.2798
vn 0.5856 -0.2022 -0.7850
vn 0.5678 -0.1473 -0.8099
vn -0.6364 -0.2742 -0.7209
vn -0.9069 -0.0224 0.4207
vn -0.9098 -0.0060 0.4150
vn -0.9582 -0.0139 0.2857
vn -0.9330 -0.0457 0.3569
vn -0.5420 -0.3076 -0.7820
vn 0.6575 -0.2531 -0.7097
vn 0.8477 -0.1450 0.5101
vn -0.5061 -0.4095 -0.7590
vn -0.9411 -0.0364 0.3362
vn -0.6926 0.0180 0.7211
vn -0.6437 -0.3988 -0.6531
vn 0.7548 -0.0688 -0.6523
vn 0.7739 0.2458 0.5836
vn 0.3775 -0.0576 -0.9242
vn -0.8845 -0.2827 -0.3711
vn -0.9156 -0.1211 -0.3834
vn -0.4717 0.0718 0.8788
vn -0.5397 -0.0454 0.8406
vn 0.4104 -0.0986 0.9066
vn 0.7432 0.3537 0.5679
vn -0.8828 -0.1337 -0.4503
vn 0.9058 -0.0239 0.4229
vn 0.7145 -0.6301 0.3041
vn 0.2097 -0.6464 -0.7335
vn -0.4749 -0.1575 0.8658
vn -0.3299 -0.6420 0.6920
vn -0.7080 -0.6350 -0.3090
vn 0.9791 0.1426 0.1449
vn -0.6706 -0.7011 -0.2421
vn 0.2795 -0.5416 -0.7928
vn 0.8602 -0.4878 0.1484
vn -0.0743 -0.7536 0.6531
vn -0.1874 -0.3943 0.8997
vn 0.9897 -0.1060 0.0957
vn 0.2731 -0.0725 -0.9592
vn -0.8484 -0.4225 -0.3189
usemtl Material.001
s 1
f 155/1/1 136/2/2 2/3/3 11/4/4
f 12/5/5 4/6/6 140/7/7 158/8/8
f 4/9/6 2/10/3 9/11/9 10/12/10
f 66/13/11 65/14/12 20/15/13
f 2/3/3 136/2/2 151/16/14 9/17/9
f 14/18/15 6/19/16 146/20/17 161/21/18
f 5/22/19 6/19/16 14/18/15
f 162/23/20 143/24/21 134/25/22 13/26/23
f 128/27/24 8/28/25 150/29/26 290/30/27
f 127/31/28 7/32/29 85/33/30
f 4/9/6 10/12/10 154/34/31
f 8/28/25 12/5/5 158/8/8 150/29/26
f 147/35/32 155/1/1 11/4/4 7/32/29
f 13/26/23 1/36/33 15/37/34
f 135/38/35 162/23/20 15/37/34
f 3/39/36 14/18/15 16/40/37
f 28/41/38 27/42/39 21/43/40 22/44/41
f 26/45/42 25/46/43 23/47/44
f 65/14/12 18/48/45 20/15/13
f 34/49/46 33/50/47 66/13/11 19/51/48
f 17/52/49 18/48/45 35/53/50 31/54/51
f 25/46/43 28/41/38 22/44/41
f 29/55/52 26/45/42 23/47/44 24/56/53
f 27/57/39 29/55/52 24/56/53 21/58/40
f 17/59/49 19/51/48 29/55/52 27/57/39
f 19/51/48 66/13/11 26/45/42 29/55/52
f 20/15/13 18/48/45 28/41/38 25/46/43
f 66/13/11 20/15/13 25/46/43 26/45/42
f 18/48/45 17/52/49 27/42/39 28/41/38
f 70/60/54 68/61/55 33/50/47 34/49/46
f 72/62/56 70/60/54 34/49/46 31/63/51
f 71/64/57 67/65/58 31/54/51 35/53/50
f 69/66/59 71/64/57 35/53/50 32/67/60
f 67/68/58 72/62/56 31/63/51
f 68/61/55 69/66/59 32/67/60 33/50/47
f 8/28/25 36/69/61 12/5/5
f 161/21/18 139/70/62 16/40/37
f 23/47/44 25/46/43 22/44/41
f 23/71/44 22/72/41 38/73/63 39/74/64
f 24/75/53 23/76/44 39/77/64 40/78/65
f 22/79/41 21/80/40 37/81/66 38/82/63
f 21/83/40 24/84/53 40/85/65 37/86/66
f 40/78/65 39/77/64 41/87/67 42/88/68
f 42/89/68 41/90/67 44/91/69 43/92/70
f 37/86/66 40/85/65 42/93/68 43/94/70
f 38/82/63 37/81/66 43/95/70 44/96/69
f 38/82/63 44/96/69 48/97/71 46/98/72
f 45/99/73 46/100/72 48/101/71 47/102/74
f 41/87/67 39/77/64 45/103/73 47/104/74
f 39/74/64 38/73/63 46/100/72 45/99/73
f 41/90/67 47/105/74 48/106/71 44/91/69
f 204/107/75 198/108/76 50/109/77 52/110/78
f 59/111/79 58/112/80 51/113/81 53/114/82
f 53/115/82 51/116/81 202/117/83 207/118/84
f 62/119/85 50/120/77 54/121/86
f 75/122/87 74/123/88 201/124/89 216/125/90
f 56/126/91 75/127/87 133/128/92 61/129/93
f 61/129/93 59/111/79 53/114/82 56/126/91
f 60/130/94 54/121/86 208/131/95 219/132/96
f 202/133/83 51/134/81 55/135/97
f 50/120/77 198/136/76 208/131/95 54/121/86
f 197/137/98 49/138/99 9/139/9 151/140/14
f 197/141/98 213/142/100 30/143/101
f 216/125/90 57/144/102 75/122/87
f 49/145/99 64/146/103 61/129/93 57/147/102
f 49/138/99 57/148/102 10/149/10 9/139/9
f 55/135/97 60/130/94 219/132/96 211/150/104
f 213/142/100 204/107/75 52/110/78 30/143/101
f 51/134/81 58/151/80 60/130/94 55/135/97
f 63/152/105 62/153/85 58/112/80 59/111/79
f 52/154/78 50/155/77 62/153/85 63/152/105
f 57/148/102 216/156/90 154/157/31
f 64/146/103 63/152/105 59/111/79 61/129/93
f 49/145/99 30/158/101 64/146/103
f 58/151/80 62/119/85 54/121/86 60/130/94
f 32/67/60 35/53/50 18/48/45 65/14/12
f 33/50/47 32/67/60 65/14/12 66/13/11
f 128/27/24 129/159/106 36/69/61 8/28/25
f 3/160/36 16/161/37 69/66/59 68/61/55
f 15/162/34 72/62/56 67/68/58
f 16/161/37 139/163/62 71/64/57 69/66/59
f 139/163/62 135/164/35 67/65/58
f 15/162/34 1/165/33 70/60/54 72/62/56
f 1/165/33 3/160/36 68/61/55 70/60/54
f 14/18/15 161/21/18 16/40/37
f 162/23/20 13/26/23 15/37/34
f 5/22/19 134/25/22 127/31/28
f 13/26/23 5/22/19 14/18/15
f 30/158/101 52/154/78 63/152/105 64/146/103
f 73/166/107 207/118/84 232/167/108
f 75/127/87 56/126/91 74/168/88
f 73/166/107 232/167/108 287/169/109
f 12/170/5 36/171/61 82/172/110
f 10/149/10 57/148/102 154/157/31
f 82/172/110 81/173/111 77/174/112
f 77/174/112 81/173/111 83/175/113
f 105/176/114 103/177/115 118/178/116
f 83/175/113 81/173/111 87/179/117
f 87/179/117 81/173/111 82/172/110
f 131/180/118 93/181/119 92/182/120 89/183/121
f 93/181/119 96/184/122 100/185/123 92/182/120
f 93/181/119 131/180/118 132/186/124 94/187/125
f 85/188/30 7/189/29 88/190/126
f 130/191/127 86/192/128 87/193/117 89/183/121
f 95/194/129 91/195/130 92/182/120
f 90/196/131 91/195/130 95/194/129
f 90/196/131 88/197/126 130/191/127 91/195/130
f 94/187/125 132/186/124 88/190/126 90/198/131
f 91/195/130 130/191/127 89/183/121 92/182/120
f 86/192/128 130/191/127 88/197/126
f 96/184/122 93/181/119 94/187/125 97/199/132
f 131/180/118 84/200/133 85/188/30 132/186/124
f 98/201/134 90/196/131 95/194/129 99/202/135
f 99/202/135 95/194/129 92/182/120 100/185/123
f 76/203/136 99/202/135 100/185/123
f 80/204/137 98/201/134 99/202/135 76/203/136
f 79/205/138 97/199/132 98/206/134 80/207/137
f 78/208/139 96/184/122 97/199/132 79/205/138
f 100/185/123 96/184/122 78/208/139
f 76/203/136 100/185/123 78/208/139
f 103/177/115 104/209/140 112/210/141 111/211/142
f 107/212/143 106/213/144 102/214/145 101/215/146
f 105/176/114 108/216/147 104/209/140 103/177/115
f 108/217/147 107/212/143 101/215/146 104/218/140
f 80/219/137 76/220/136 107/212/143
f 80/221/137 108/216/147 105/176/114
f 78/222/139 106/213/144 107/212/143
f 78/223/139 79/224/138 105/225/114
f 110/226/148 111/227/142 115/228/149 114/229/150
f 101/215/146 102/214/145 110/226/148 109/230/151
f 104/218/140 101/215/146 109/230/151 112/231/141
f 102/214/145 103/232/115 111/227/142 110/226/148
f 113/233/152 114/229/150 115/234/149 116/235/153
f 111/211/142 112/210/141 116/236/153 115/237/149
f 109/230/151 110/226/148 114/229/150 113/233/152
f 112/231/141 109/230/151 113/233/152 116/238/153
f 106/239/144 105/225/114 118/240/116 117/241/154
f 120/242/155 119/243/156 121/244/157 122/245/158
f 102/246/145 106/239/144 117/241/154
f 124/247/159 123/248/160 121/244/157 119/249/156
f 126/250/161 125/251/162 120/252/155 122/253/158
f 125/254/162 124/247/159 119/249/156 120/255/155
f 123/248/160 126/256/161 122/245/158 121/244/157
f 117/241/154 118/240/116 126/256/161 123/248/160
f 103/257/115 102/246/145 124/247/159 125/254/162
f 118/178/116 103/177/115 125/251/162 126/250/161
f 102/246/145 117/241/154 123/248/160 124/247/159
f 79/258/138 80/221/137 105/176/114
f 76/220/136 78/222/139 107/212/143
f 108/217/147 80/219/137 107/212/143
f 106/239/144 78/223/139 105/225/114
f 12/170/5 82/172/110 4/259/6
f 36/171/61 84/260/133 82/172/110
f 7/261/29 86/192/128 88/197/126
f 11/262/4 2/263/3 83/175/113
f 2/263/3 4/259/6 77/174/112
f 7/264/29 11/262/4 83/175/113
f 85/265/30 84/260/133 36/171/61
f 56/266/91 73/166/107 287/169/109 74/267/88
f 74/267/88 287/169/109 201/268/89
f 86/269/128 7/264/29 83/175/113
f 4/259/6 82/172/110 77/174/112
f 2/263/3 77/174/112 83/175/113
f 86/269/128 83/175/113 87/179/117
f 84/260/133 87/179/117 82/172/110
f 6/19/16 5/22/19 129/159/106 128/27/24
f 129/159/106 5/22/19 127/31/28
f 6/19/16 128/27/24 290/30/27 146/20/17
f 36/69/61 129/159/106 85/33/30
f 129/159/106 127/31/28 85/33/30
f 291/270/163 147/35/32 7/32/29 127/31/28
f 97/199/132 94/187/125 90/198/131 98/206/134
f 84/200/133 131/180/118 89/183/121 87/193/117
f 132/186/124 85/188/30 88/190/126
f 49/271/99 197/141/98 30/143/101
f 211/150/104 202/133/83 55/135/97
f 31/63/51 34/49/46 19/51/48 17/59/49
f 56/266/91 53/115/82 207/118/84 73/166/107
f 75/127/87 57/147/102 133/128/92
f 57/147/102 61/129/93 133/128/92
f 134/25/22 143/24/21 291/270/163 127/31/28
f 13/26/23 134/25/22 5/22/19
f 135/272/35 15/162/34 67/68/58
f 71/64/57 139/163/62 67/65/58
f 1/36/33 13/26/23 14/18/15 3/39/36
f 140/7/7 4/6/6 154/273/31
f 155/1/1 156/274/164 138/275/165 136/2/2
f 157/276/166 158/8/8 140/7/7 142/277/167
f 142/278/167 153/279/168 152/280/169 138/281/165
f 225/282/170 168/283/171 224/284/172
f 138/275/165 152/285/169 151/16/14 136/2/2
f 160/286/173 161/21/18 146/20/17 145/287/174
f 144/288/175 160/286/173 145/287/174
f 162/23/20 159/289/176 297/290/177 143/24/21
f 289/291/178 290/30/27 150/29/26 149/292/179
f 288/293/180 245/294/181 148/295/182
f 142/278/167 154/34/31 153/279/168
f 149/292/179 150/29/26 158/8/8 157/276/166
f 147/35/32 148/295/182 156/274/164 155/1/1
f 159/289/176 163/296/183 137/297/184
f 135/38/35 163/296/183 162/23/20
f 141/298/185 164/299/186 160/286/173
f 176/300/187 170/301/188 169/302/189 175/303/190
f 174/304/191 171/305/192 173/306/193
f 224/284/172 168/283/171 166/307/194
f 182/308/195 167/309/196 225/282/170 181/310/197
f 165/311/198 179/312/199 183/313/200 166/307/194
f 173/306/193 170/301/188 176/300/187
f 177/314/201 172/315/202 171/305/192 174/304/191
f 175/316/190 169/317/189 172/315/202 177/314/201
f 165/318/198 175/316/190 177/314/201 167/309/196
f 167/309/196 177/314/201 174/304/191 225/282/170
f 168/283/171 173/306/193 176/300/187 166/307/194
f 225/282/170 174/304/191 173/306/193 168/283/171
f 166/307/194 176/300/187 175/303/190 165/311/198
f 229/319/203 182/308/195 181/310/197 227/320/204
f 231/321/205 179/322/199 182/308/195 229/319/203
f 230/323/206 183/313/200 179/312/199 226/324/207
f 228/325/208 180/326/209 183/313/200 230/323/206
f 226/327/207 179/322/199 231/321/205
f 227/320/204 181/310/197 180/326/209 228/325/208
f 149/292/179 157/276/166 184/328/210
f 161/21/18 164/299/186 139/70/62
f 171/305/192 170/301/188 173/306/193
f 171/329/192 187/330/211 186/331/212 170/332/188
f 172/333/202 188/334/213 187/335/211 171/336/192
f 170/337/188 186/338/212 185/339/214 169/340/189
f 169/341/189 185/342/214 188/343/213 172/344/202
f 188/334/213 190/345/215 189/346/216 187/335/211
f 190/347/215 191/348/217 192/349/218 189/350/216
f 185/342/214 191/351/217 190/352/215 188/343/213
f 186/338/212 192/353/218 191/354/217 185/339/214
f 186/338/212 194/355/219 196/356/220 192/353/218
f 193/357/221 195/358/222 196/359/220 194/360/219
f 189/346/216 195/361/222 193/362/221 187/335/211
f 187/330/211 193/357/221 194/360/219 186/331/212
f 189/350/216 192/349/218 196/363/220 195/364/222
f 204/107/75 205/365/223 200/366/224 198/108/76
f 217/367/225 206/368/226 203/369/227 215/370/228
f 206/371/226 207/118/84 202/117/83 203/372/227
f 221/373/229 209/374/230 200/375/224
f 235/376/231 216/125/90 201/124/89 234/377/232
f 212/378/233 220/379/234 296/380/235 235/381/231
f 220/379/234 212/378/233 206/368/226 217/367/225
f 218/382/236 219/132/96 208/131/95 209/374/230
f 202/133/83 210/383/237 203/384/227
f 200/375/224 209/374/230 208/131/95 198/136/76
f 197/137/98 151/140/14 152/385/169 199/386/238
f 197/141/98 178/387/239 213/142/100
f 216/125/90 235/376/231 214/388/240
f 199/389/238 214/390/240 220/379/234 223/391/241
f 199/386/238 152/385/169 153/392/168 214/393/240
f 210/383/237 211/150/104 219/132/96 218/382/236
f 213/142/100 178/387/239 205/365/223 204/107/75
f 203/384/227 210/383/237 218/382/236 215/394/228
f 222/395/242 217/367/225 215/370/228 221/396/229
f 205/397/223 222/395/242 221/396/229 200/398/224
f 214/393/240 154/157/31 216/156/90
f 223/391/241 220/379/234 217/367/225 222/395/242
f 199/389/238 223/391/241 178/399/239
f 215/394/228 218/382/236 209/374/230 221/373/229
f 180/326/209 224/284/172 166/307/194 183/313/200
f 181/310/197 225/282/170 224/284/172 180/326/209
f 289/291/178 149/292/179 184/328/210 292/400/243
f 141/401/185 227/320/204 228/325/208 164/402/186
f 163/403/183 226/327/207 231/321/205
f 164/402/186 228/325/208 230/323/206 139/163/62
f 139/163/62 226/324/207 135/164/35
f 163/403/183 231/321/205 229/319/203 137/404/184
f 137/404/184 229/319/203 227/320/204 141/401/185
f 160/286/173 164/299/186 161/21/18
f 162/23/20 163/296/183 159/289/176
f 144/288/175 288/293/180 297/290/177
f 159/289/176 160/286/173 144/288/175
f 178/399/239 223/391/241 222/395/242 205/397/223
f 233/405/244 232/167/108 207/118/84
f 235/381/231 234/406/232 212/378/233
f 233/405/244 287/169/109 232/167/108
f 157/407/166 242/408/245 184/409/210
f 153/392/168 154/157/31 214/393/240
f 242/408/245 237/410/246 241/411/247
f 237/410/246 243/412/248 241/411/247
f 265/413/249 278/414/250 263/415/251
f 243/412/248 247/416/252 241/411/247
f 247/416/252 242/408/245 241/411/247
f 294/417/253 249/418/254 252/419/255 253/420/256
f 253/420/256 252/419/255 260/421/257 256/422/258
f 253/420/256 254/423/259 295/424/260 294/417/253
f 245/425/181 248/426/261 148/427/182
f 293/428/262 249/418/254 247/429/252 246/430/263
f 255/431/264 252/419/255 251/432/265
f 250/433/266 255/431/264 251/432/265
f 250/433/266 251/432/265 293/428/262 248/434/261
f 254/423/259 250/435/266 248/426/261 295/424/260
f 251/432/265 252/419/255 249/418/254 293/428/262
f 246/430/263 248/434/261 293/428/262
f 256/422/258 257/436/267 254/423/259 253/420/256
f 294/417/253 295/424/260 245/425/181 244/437/268
f 258/438/269 259/439/270 255/431/264 250/433/266
f 259/439/270 260/421/257 252/419/255 255/431/264
f 236/440/271 260/421/257 259/439/270
f 240/441/272 236/440/271 259/439/270 258/438/269
f 239/442/273 240/443/272 258/444/269 257/436/267
f 238/445/274 239/442/273 257/436/267 256/422/258
f 260/421/257 238/445/274 256/422/258
f 236/440/271 238/445/274 260/421/257
f 263/415/251 271/446/275 272/447/276 264/448/277
f 267/449/278 261/450/279 262/451/280 266/452/281
f 265/413/249 263/415/251 264/448/277 268/453/282
f 268/454/282 264/455/277 261/450/279 267/449/278
f 240/456/272 267/449/278 236/457/271
f 240/458/272 265/413/249 268/453/282
f 238/459/274 267/449/278 266/452/281
f 238/460/274 265/461/249 239/462/273
f 270/463/283 274/464/284 275/465/285 271/466/275
f 261/450/279 269/467/286 270/463/283 262/451/280
f 264/455/277 272/468/276 269/467/286 261/450/279
f 262/451/280 270/463/283 271/466/275 263/469/251
f 273/470/287 276/471/288 275/472/285 274/464/284
f 271/446/275 275/473/285 276/474/288 272/447/276
f 269/467/286 273/470/287 274/464/284 270/463/283
f 272/468/276 276/475/288 273/470/287 269/467/286
f 266/476/281 277/477/289 278/478/250 265/461/249
f 280/479/290 282/480/291 281/481/292 279/482/293
f 262/483/280 277/477/289 266/476/281
f 284/484/294 279/485/293 281/481/292 283/486/295
f 286/487/296 282/488/291 280/489/290 285/490/297
f 285/491/297 280/492/290 279/485/293 284/484/294
f 283/486/295 281/481/292 282/480/291 286/493/296
f 277/477/289 283/486/295 286/493/296 278/478/250
f 263/494/251 285/491/297 284/484/294 262/483/280
f 278/414/250 286/487/296 285/490/297 263/415/251
f 262/483/280 284/484/294 283/486/295 277/477/289
f 239/495/273 265/413/249 240/458/272
f 236/457/271 267/449/278 238/459/274
f 268/454/282 267/449/278 240/456/272
f 266/476/281 265/461/249 238/460/274
f 157/407/166 142/496/167 242/408/245
f 184/409/210 242/408/245 244/497/268
f 148/498/182 248/434/261 246/430/263
f 156/499/164 243/412/248 138/500/165
f 138/500/165 237/410/246 142/496/167
f 148/501/182 243/412/248 156/499/164
f 245/502/181 184/409/210 244/497/268
f 212/503/233 234/504/232 287/169/109 233/405/244
f 234/504/232 201/268/89 287/169/109
f 246/505/263 243/412/248 148/501/182
f 142/496/167 237/410/246 242/408/245
f 138/500/165 243/412/248 237/410/246
f 246/505/263 247/416/252 243/412/248
f 244/497/268 242/408/245 247/416/252
f 145/287/174 289/291/178 292/400/243 144/288/175
f 292/400/243 288/293/180 144/288/175
f 145/287/174 146/20/17 290/30/27 289/291/178
f 184/328/210 245/294/181 292/400/243
f 292/400/243 245/294/181 288/293/180
f 291/270/163 288/293/180 148/295/182 147/35/32
f 257/436/267 258/444/269 250/435/266 254/423/259
f 244/437/268 247/429/252 249/418/254 294/417/253
f 295/424/260 248/426/261 245/425/181
f 199/506/238 178/387/239 197/141/98
f 211/150/104 210/383/237 202/133/83
f 179/322/199 165/318/198 167/309/196 182/308/195
f 212/503/233 233/405/244 207/118/84 206/371/226
f 235/381/231 296/380/235 214/390/240
f 214/390/240 296/380/235 220/379/234
f 297/290/177 288/293/180 291/270/163 143/24/21
f 159/289/176 144/288/175 297/290/177
f 135/272/35 226/327/207 163/403/183
f 230/323/206 226/324/207 139/163/62
f 137/297/184 141/298/185 160/286/173 159/289/176
f 140/7/7 154/273/31 142/277/167
